ZeldaIntroMusicStart:: ; 0x65c0
    db $d0, $19, $d0, $19, $d0, $19, $d0, $19, $d0, $19, $d0, $19, $d0, $19, $d0, $19
    db $d0, $19, $d0, $19, $d0, $19, $d0, $19, $d0, $19, $d0, $19, $d0, $19, $d0, $19
    
ZeldaIntroMusicOrderCount:: ; 0x65e0
    db $08
    
ZeldaIntroMusicSongPattern1:: ; 0x65e1
    db A_6, $10, $00
    db ___, $00, $00
    db D_6, $10, $00
    db ___, $00, $00
    db A#5, $10, $00
    db ___, $00, $00
    db G_5, $10, $00
    db ___, $00, $00
    db G_6, $10, $00
    db ___, $00, $00
    db D_6, $10, $00
    db ___, $00, $00
    db A#5, $10, $00
    db ___, $00, $00
    db G_5, $10, $00
    db ___, $00, $00
    db F#6, $10, $00
    db ___, $00, $00
    db D_6, $10, $00
    db ___, $00, $00
    db A#5, $10, $00
    db ___, $00, $00
    db G_5, $10, $00
    db ___, $00, $00
    db G_6, $10, $00
    db ___, $00, $00
    db D_6, $10, $00
    db ___, $00, $00
    db A#5, $10, $00
    db ___, $00, $00
    db G_5, $10, $00
    db ___, $00, $00
    db G_6, $10, $00
    db ___, $00, $00
    db C_6, $10, $00
    db ___, $00, $00
    db A_5, $10, $00
    db ___, $00, $00
    db F_5, $10, $00
    db ___, $00, $00
    db F_6, $10, $00
    db ___, $00, $00
    db C_6, $10, $00
    db ___, $00, $00
    db A_5, $10, $00
    db ___, $00, $00
    db F_5, $10, $00
    db ___, $00, $00
    db E_6, $10, $00
    db ___, $00, $00
    db C_6, $10, $00
    db ___, $00, $00
    db A_5, $10, $00
    db ___, $00, $00
    db F_5, $10, $00
    db ___, $00, $00
    db F_6, $10, $00
    db ___, $00, $00
    db C_6, $10, $00
    db ___, $00, $00
    db A_5, $10, $00
    db ___, $00, $00
    db F_5, $10, $00
    db ___, $00, $00

ZeldaIntroMusicSongPattern2:: ; 0x66a1
    db A#3, $20, $00
    db ___, $00, $00
    db A#3, $20, $00
    db ___, $00, $00
    db F_4, $20, $00
    db ___, $00, $00
    db A_4, $20, $00
    db ___, $00, $00
    db ___, $00, $00
    db ___, $00, $00
    db ___, $00, $00
    db ___, $00, $00
    db ___, $00, $00
    db ___, $00, $00
    db ___, $00, $00
    db ___, $00, $00
    db ___, $00, $00
    db ___, $00, $00
    db F_4, $20, $00
    db ___, $00, $00
    db G_4, $20, $00
    db ___, $00, $00
    db F_4, $20, $00
    db ___, $00, $00
    db C_5, $20, $00
    db ___, $00, $00
    db G_4, $20, $00
    db ___, $00, $00
    db F_4, $20, $00
    db ___, $00, $00
    db C_4, $20, $00
    db ___, $00, $00
    db A_3, $20, $00
    db ___, $00, $00
    db A_3, $20, $00
    db ___, $00, $00
    db F_4, $20, $00
    db ___, $00, $00
    db A_4, $20, $00
    db ___, $00, $00
    db ___, $00, $00
    db ___, $00, $00
    db ___, $00, $00
    db ___, $00, $00
    db ___, $00, $00
    db ___, $00, $00
    db ___, $00, $00
    db ___, $00, $00
    db ___, $00, $00
    db ___, $00, $00
    db F_4, $20, $00
    db ___, $00, $00
    db G_4, $20, $00
    db ___, $00, $00
    db F_4, $20, $00
    db ___, $00, $00
    db C_5, $20, $00
    db ___, $00, $00
    db G_4, $20, $00
    db ___, $00, $00
    db F_4, $20, $00
    db ___, $00, $00
    db C_4, $20, $00
    db ___, $00, $00

ZeldaIntroMusicSongPattern3:: ; 0x6761
    db ___, $00, $00
    db ___, $00, $00
    db ___, $00, $00
    db ___, $00, $00
    db ___, $00, $00
    db ___, $00, $00
    db ___, $00, $00
    db ___, $00, $00
    db ___, $00, $00
    db ___, $00, $00
    db ___, $00, $00
    db ___, $00, $00
    db ___, $00, $00
    db ___, $00, $00
    db ___, $00, $00
    db ___, $00, $00
    db ___, $00, $00
    db ___, $00, $00
    db ___, $00, $00
    db ___, $00, $00
    db ___, $00, $00
    db ___, $00, $00
    db ___, $00, $00
    db ___, $00, $00
    db ___, $00, $00
    db ___, $00, $00
    db ___, $00, $00
    db ___, $00, $00
    db ___, $00, $00
    db ___, $00, $00
    db ___, $00, $00
    db ___, $00, $00
    db ___, $00, $00
    db ___, $00, $00
    db ___, $00, $00
    db ___, $00, $00
    db ___, $00, $00
    db ___, $00, $00
    db ___, $00, $00
    db ___, $00, $00
    db ___, $00, $00
    db ___, $00, $00
    db ___, $00, $00
    db ___, $00, $00
    db ___, $00, $00
    db ___, $00, $00
    db ___, $00, $00
    db ___, $00, $00
    db ___, $00, $00
    db ___, $00, $00
    db ___, $00, $00
    db ___, $00, $00
    db ___, $00, $00
    db ___, $00, $00
    db ___, $00, $00
    db ___, $00, $00
    db ___, $00, $00
    db ___, $00, $00
    db ___, $00, $00
    db ___, $00, $00
    db ___, $00, $00
    db ___, $00, $00
    db ___, $00, $00
    db ___, $00, $00

ZeldaIntroMusicSongPattern4:: ; 0x6821
    db F_6, $10, $00
    db ___, $00, $00
    db A#5, $10, $00
    db ___, $00, $00
    db G_5, $10, $00
    db ___, $00, $00
    db E_5, $10, $00
    db ___, $00, $00
    db E_6, $10, $00
    db ___, $00, $00
    db A#5, $10, $00
    db ___, $00, $00
    db G_5, $10, $00
    db ___, $00, $00
    db E_5, $10, $00
    db ___, $00, $00
    db D#6, $10, $00
    db ___, $00, $00
    db A#5, $10, $00
    db ___, $00, $00
    db G_5, $10, $00
    db ___, $00, $00
    db E_5, $10, $00
    db ___, $00, $00
    db E_6, $10, $00
    db ___, $00, $00
    db A#5, $10, $00
    db ___, $00, $00
    db G_5, $10, $00
    db ___, $00, $00
    db E_5, $10, $00
    db ___, $00, $00
    db E_6, $10, $00
    db ___, $00, $00
    db A_5, $10, $00
    db ___, $00, $00
    db F_5, $10, $00
    db ___, $00, $00
    db D_5, $10, $00
    db ___, $00, $00
    db D_6, $10, $00
    db ___, $00, $00
    db A_5, $10, $00
    db ___, $00, $00
    db F_5, $10, $00
    db ___, $00, $00
    db D_5, $10, $00
    db ___, $00, $00
    db C#6, $10, $00
    db ___, $00, $00
    db A_5, $10, $00
    db ___, $00, $00
    db F_5, $10, $00
    db ___, $00, $00
    db D_5, $10, $00
    db ___, $00, $00
    db D_6, $10, $00
    db ___, $00, $00
    db A_5, $10, $00
    db ___, $00, $00
    db F_5, $10, $00
    db ___, $00, $00
    db D_5, $10, $00
    db ___, $00, $00

ZeldaIntroMusicSongPattern5:: ; 0x68e1
    db G_3, $20, $00
    db ___, $00, $00
    db G_3, $20, $00
    db ___, $00, $00
    db A#3, $20, $00
    db ___, $00, $00
    db F_4, $20, $00
    db ___, $00, $00
    db ___, $00, $00
    db ___, $00, $00
    db ___, $00, $00
    db ___, $00, $00
    db ___, $00, $00
    db ___, $00, $00
    db ___, $00, $00
    db ___, $00, $00
    db ___, $00, $00
    db ___, $00, $00
    db E_4, $20, $00
    db ___, $00, $00
    db F_4, $20, $00
    db ___, $00, $00
    db E_4, $20, $00
    db ___, $00, $00
    db G_4, $20, $00
    db ___, $00, $00
    db E_4, $20, $00
    db ___, $00, $00
    db C_4, $20, $00
    db ___, $00, $00
    db G_3, $20, $00
    db ___, $00, $00
    db $05, $20, $00
    db ___, $00, $00
    db $05, $20, $00
    db ___, $00, $00
    db A_3, $20, $00
    db ___, $00, $00
    db $0e, $20, $00
    db ___, $00, $00
    db ___, $00, $00
    db ___, $00, $00
    db ___, $00, $00
    db ___, $00, $00
    db ___, $00, $00
    db ___, $00, $00
    db ___, $00, $00
    db ___, $00, $00
    db ___, $00, $00
    db ___, $00, $00
    db C#4, $20, $00
    db ___, $00, $00
    db $0e, $20, $00
    db ___, $00, $00
    db C#4, $20, $00
    db ___, $00, $00
    db E_4, $20, $00
    db ___, $00, $00
    db C#4, $20, $00
    db ___, $00, $00
    db A#3, $20, $00
    db ___, $00, $00
    db A_3, $20, $00
    db ___, $00, $00

ZeldaIntroMusicSongPattern6:: ; 0x69a1
    db A_6, $10, $00
    db ___, $00, $00
    db D_6, $10, $00
    db ___, $00, $00
    db A#5, $10, $00
    db ___, $00, $00
    db G_5, $10, $00
    db ___, $00, $00
    db G_6, $10, $00
    db ___, $00, $00
    db D_6, $10, $00
    db ___, $00, $00
    db A#5, $10, $00
    db ___, $00, $00
    db G_5, $10, $00
    db ___, $00, $00
    db F#6, $10, $00
    db ___, $00, $00
    db D_6, $10, $00
    db ___, $00, $00
    db A#5, $10, $00
    db ___, $00, $00
    db G_5, $10, $00
    db ___, $00, $00
    db G_6, $10, $00
    db ___, $00, $00
    db D_6, $10, $00
    db ___, $00, $00
    db A#5, $10, $00
    db ___, $00, $00
    db G_5, $10, $00
    db ___, $00, $00
    db A#6, $10, $00
    db ___, $00, $00
    db D#6, $10, $00
    db ___, $00, $00
    db C_6, $10, $00
    db ___, $00, $00
    db A_5, $10, $00
    db ___, $00, $00
    db A_6, $10, $00
    db ___, $00, $00
    db D#6, $10, $00
    db ___, $00, $00
    db C_6, $10, $00
    db ___, $00, $00
    db A_5, $10, $00
    db ___, $00, $00
    db G#6, $10, $00
    db ___, $00, $00
    db D#6, $10, $00
    db ___, $00, $00
    db C_6, $10, $00
    db ___, $00, $00
    db A_5, $10, $00
    db ___, $00, $00
    db A_6, $10, $00
    db ___, $00, $00
    db D#6, $10, $00
    db ___, $00, $00
    db C_6, $10, $00
    db ___, $00, $00
    db A_5, $10, $00
    db ___, $00, $00

ZeldaIntroMusicSongPattern7:: ; 0x6a61
    db A#3, $20, $00
    db ___, $00, $00
    db A#3, $20, $00
    db ___, $00, $00
    db F_4, $20, $00
    db ___, $00, $00
    db A_4, $20, $00
    db ___, $00, $00
    db ___, $00, $00
    db ___, $00, $00
    db ___, $00, $00
    db ___, $00, $00
    db ___, $00, $00
    db ___, $00, $00
    db ___, $00, $00
    db ___, $00, $00
    db ___, $00, $00
    db ___, $00, $00
    db F_4, $20, $00
    db ___, $00, $00
    db G_4, $20, $00
    db ___, $00, $00
    db F_4, $20, $00
    db ___, $00, $00
    db C_5, $20, $00
    db ___, $00, $00
    db G_4, $20, $00
    db ___, $00, $00
    db F_4, $20, $00
    db ___, $00, $00
    db C_4, $20, $00
    db ___, $00, $00
    db A_3, $20, $00
    db ___, $00, $00
    db A_3, $20, $00
    db ___, $00, $00
    db C_4, $20, $00
    db ___, $00, $00
    db C_5, $20, $00
    db ___, $00, $00
    db ___, $00, $00
    db ___, $00, $00
    db ___, $00, $00
    db ___, $00, $00
    db ___, $00, $00
    db ___, $00, $00
    db ___, $00, $00
    db ___, $00, $00
    db ___, $00, $00
    db ___, $00, $00
    db A_4, $20, $00
    db ___, $00, $00
    db C_5, $20, $00
    db ___, $00, $00
    db A_4, $20, $00
    db ___, $00, $00
    db D#5, $20, $00
    db ___, $00, $00
    db D_5, $20, $00
    db ___, $00, $00
    db C_5, $20, $00
    db ___, $00, $00
    db A_4, $20, $00
    db ___, $00, $00

ZeldaIntroMusicSongPattern8:: ; 0x6b21
    db C_7, $10, $00
    db ___, $00, $00
    db D_6, $10, $00
    db ___, $00, $00
    db A#5, $10, $00
    db ___, $00, $00
    db G_5, $10, $00
    db ___, $00, $00
    db A#6, $10, $00
    db ___, $00, $00
    db D_6, $10, $00
    db ___, $00, $00
    db A#5, $10, $00
    db ___, $00, $00
    db G_5, $10, $00
    db ___, $00, $00
    db A_6, $10, $00
    db ___, $00, $00
    db D_6, $10, $00
    db ___, $00, $00
    db A#5, $10, $00
    db ___, $00, $00
    db G_5, $10, $00
    db ___, $00, $00
    db A#6, $10, $00
    db ___, $00, $00
    db D_6, $10, $00
    db ___, $00, $00
    db A#5, $10, $00
    db ___, $00, $00
    db G_5, $10, $00
    db ___, $00, $00
    db A_6, $10, $00
    db ___, $00, $00
    db A#5, $10, $00
    db ___, $00, $00
    db G_5, $10, $00
    db ___, $00, $00
    db E_5, $10, $00
    db ___, $00, $00
    db G_6, $10, $00
    db ___, $00, $00
    db A#5, $10, $00
    db ___, $00, $00
    db G_5, $10, $00
    db ___, $00, $00
    db E_5, $10, $00
    db ___, $00, $00
    db F_6, $10, $00
    db ___, $00, $00
    db A#5, $10, $00
    db ___, $00, $00
    db G_5, $10, $00
    db ___, $00, $00
    db E_5, $10, $00
    db ___, $00, $00
    db E_6, $10, $00
    db ___, $00, $00
    db A#5, $10, $00
    db ___, $00, $00
    db G_5, $10, $00
    db ___, $00, $00
    db E_5, $10, $00
    db ___, $00, $00

ZeldaIntroMusicSongPattern9:: ; 0x6be1
    db A#3, $20, $00
    db ___, $00, $00
    db A#3, $20, $00
    db ___, $00, $00
    db F_4, $20, $00
    db ___, $00, $00
    db A#4, $20, $00
    db ___, $00, $00
    db ___, $00, $00
    db ___, $00, $00
    db ___, $00, $00
    db ___, $00, $00
    db ___, $00, $00
    db ___, $00, $00
    db ___, $00, $00
    db ___, $00, $00
    db ___, $00, $00
    db ___, $00, $00
    db A_4, $20, $00
    db ___, $00, $00
    db A#4, $20, $00
    db ___, $00, $00
    db A_4, $20, $00
    db ___, $00, $00
    db C_5, $20, $00
    db ___, $00, $00
    db A#4, $20, $00
    db ___, $00, $00
    db G_4, $20, $00
    db ___, $00, $00
    db E_4, $20, $00
    db ___, $00, $00
    db G_3, $20, $00
    db ___, $00, $00
    db G_3, $20, $00
    db ___, $00, $00
    db A#3, $20, $00
    db ___, $00, $00
    db F_4, $20, $00
    db ___, $00, $00
    db ___, $00, $00
    db ___, $00, $00
    db ___, $00, $00
    db ___, $00, $00
    db ___, $00, $00
    db ___, $00, $00
    db ___, $00, $00
    db ___, $00, $00
    db ___, $00, $00
    db ___, $00, $00
    db E_4, $20, $00
    db ___, $00, $00
    db F_4, $20, $00
    db ___, $00, $00
    db E_4, $20, $00
    db ___, $00, $00
    db G_4, $20, $00
    db ___, $00, $00
    db E_4, $20, $00
    db ___, $00, $00
    db C_4, $20, $00
    db ___, $00, $00
    db G_3, $20, $00
    db ___, $00, $00

ZeldaIntroMusicOrder1:: ; 0x6ca1
    dw ZeldaIntroMusicSongPattern1
    dw ZeldaIntroMusicSongPattern4
    dw ZeldaIntroMusicSongPattern6
    dw ZeldaIntroMusicSongPattern8

ZeldaIntroMusicOrder2:: ; 0x6ca9
    dw ZeldaIntroMusicSongPattern2
    dw ZeldaIntroMusicSongPattern5
    dw ZeldaIntroMusicSongPattern7
    dw ZeldaIntroMusicSongPattern9

ZeldaIntroMusicOrder3:: ; 0x6cb1
    dw ZeldaIntroMusicSongPattern3
    dw ZeldaIntroMusicSongPattern3
    dw ZeldaIntroMusicSongPattern3
    dw ZeldaIntroMusicSongPattern3

ZeldaIntroMusicOrder4:: ; 0x6cb9
    dw ZeldaIntroMusicSongPattern3
    dw ZeldaIntroMusicSongPattern3
    dw ZeldaIntroMusicSongPattern3
    dw ZeldaIntroMusicSongPattern3
    
ZeldaIntroMusicDutyInstruments:: ; 0x6cc1
    db $00, $80, $b5, $80
    db $00, $80, $95, $80
    db $00, $00, $09, $c0
    db $00, $30, $b0, $c0
    db $00, $70, $b0, $c0
    db $00, $b0, $b0, $c0
    db $00, $00, $b0, $80
    db $00, $40, $b0, $80
    db $00, $80, $b0, $80
    db $00, $c0, $b0, $80
    db $1c, $80, $b2, $c0
    db $19, $80, $b5, $80
    db $47, $00, $b7, $80
    db $15, $60, $b7, $c0
    db $00, $80, $00, $80
    
ZeldaIntroMusicWaveInstruments:: ; 0x6cfd
    db $80, $20, $01, $c0
    db $80, $20, $02, $c0
    db $80, $20, $03, $c0
    db $80, $20, $04, $c0
    db $80, $20, $05, $c0
    db $80, $20, $06, $c0
    db $00, $20, $07, $80
    db $00, $20, $08, $80
    db $00, $20, $09, $80
    db $00, $20, $0a, $80
    db $00, $20, $0b, $80
    db $00, $20, $0c, $80
    db $00, $20, $0d, $80
    db $00, $20, $0e, $80
    db $00, $20, $0f, $80

ZeldaIntroMusicNoiseInstruments:: ; 0x6d39
    db $91, $70, $20, $20, $20, $20, $20, $20
    db $91, $60, $1f, $1f, $1f, $1f, $1f, $1f
    db $91, $00, $1c, $1c, $1c, $1c, $1c, $1c
    db $92, $00, $20, $20, $20, $20, $20, $20
    db $94, $00, $18, $18, $18, $18, $18, $18
    db $94, $00, $10, $10, $10, $10, $10, $10
    db $b1, $00, $18, $18, $18, $18, $18, $18
    db $b1, $80, $18, $18, $18, $18, $18, $18
    db $b1, $80, $10, $0f, $0f, $0f, $0f, $0f
    db $91, $80, $20, $20, $20, $20, $20, $20
    db $b2, $40, $10, $0f, $0f, $0f, $0f, $0f
    db $b1, $56, $1b, $0e, $11, $fe, $00, $00
    db $b7, $00, $0d, $0b, $09, $07, $07, $07
    db $b7, $80, $08, $07, $06, $05, $04, $04
    db $00, $00, $00, $00, $00, $00, $00, $00

ZeldaIntroMusicWaves:: ; 0x6db1
    db $88, $88, $88, $88, $88, $88, $88, $88, $88, $88, $88, $88, $88, $88, $88, $88
    db $ff, $ff, $00, $00, $00, $00, $00, $00, $00, $00, $00, $00, $00, $00, $00, $00
    db $ff, $ff, $ff, $ff, $00, $00, $00, $00, $00, $00, $00, $00, $00, $00, $00, $00
    db $ff, $ff, $ff, $ff, $ff, $00, $00, $00, $00, $00, $00, $00, $00, $00, $00, $00
    db $ff, $ff, $ff, $ff, $ff, $ff, $00, $00, $00, $00, $00, $00, $00, $00, $00, $00
    db $ff, $ff, $ff, $ff, $ff, $ff, $ff, $00, $00, $00, $00, $00, $00, $00, $00, $00
    db $ff, $ff, $ff, $ff, $ff, $ff, $ff, $ff, $00, $00, $00, $00, $00, $00, $00, $00
    db $cc, $cc, $cc, $cc, $cc, $cc, $cc, $cc, $33, $33, $33, $33, $33, $33, $33, $33
    db $aa, $aa, $aa, $aa, $aa, $aa, $aa, $aa, $55, $55, $55, $55, $55, $55, $55, $55
    db $88, $88, $88, $88, $88, $88, $88, $88, $77, $77, $77, $77, $77, $77, $77, $77
    db $ff, $ff, $cc, $cc, $ff, $ff, $cc, $cc, $00, $00, $33, $33, $00, $00, $33, $33
    db $fe, $dc, $ba, $98, $76, $54, $32, $10, $01, $23, $45, $67, $89, $ab, $cd, $ef
    db $ff, $ff, $ba, $98, $a9, $87, $32, $10, $34, $56, $45, $67, $bc, $de, $cd, $ef
    db $ff, $ee, $dd, $cc, $bb, $aa, $99, $88, $77, $66, $55, $44, $33, $22, $11, $00
    db $ff, $fe, $fd, $fc, $fb, $fa, $f9, $f8, $e7, $d6, $c5, $b4, $a3, $92, $81, $70
    db $00, $00, $00, $00, $00, $00, $00, $00, $00, $00, $00, $00, $00, $00, $00, $00

ZeldaIntroMusicRef:: ; 0x6eb1
    db $06
    dw ZeldaIntroMusicOrderCount
    dw ZeldaIntroMusicOrder1
    dw ZeldaIntroMusicOrder2
    dw ZeldaIntroMusicOrder3
    dw ZeldaIntroMusicOrder4
    dw ZeldaIntroMusicDutyInstruments
    dw ZeldaIntroMusicWaveInstruments
    dw ZeldaIntroMusicNoiseInstruments
    dw ZeldaIntroMusicStart
    dw ZeldaIntroMusicWaves